<svg width="24" height="24" viewBox="0 0 24 24" fill="none" xmlns="http://www.w3.org/2000/svg">
<g clip-path="url(#clip0_1776_1419)">
<path d="M1.11 8.60005L9.43 6.33005C10.8 5.9582 12.2604 6.12644 13.51 6.80005L17.17 8.80005L22.5 9.80005C22.8961 9.80004 23.2761 9.9567 23.5571 10.2358C23.8382 10.515 23.9974 10.894 24 11.29V14.29C24 14.6879 23.842 15.0694 23.5607 15.3507C23.2794 15.632 22.8978 15.79 22.5 15.79H21.5C21.4017 16.37 21.1013 16.8965 20.6519 17.2761C20.2025 17.6558 19.6333 17.864 19.045 17.864C18.4567 17.864 17.8875 17.6558 17.4381 17.2761C16.9887 16.8965 16.6883 16.37 16.59 15.79H7.5C7.40171 16.37 7.10126 16.8965 6.65189 17.2761C6.20252 17.6558 5.63326 17.864 5.045 17.864C4.45674 17.864 3.88748 17.6558 3.43811 17.2761C2.98874 16.8965 2.68829 16.37 2.59 15.79H1.59C1.19217 15.79 0.810646 15.632 0.529341 15.3507C0.248035 15.0694 0.0900002 14.6879 0.0900002 14.29V10C0.0943794 9.68986 0.194822 9.38866 0.377495 9.13794C0.560167 8.88721 0.816086 8.69928 1.11 8.60005ZM6 8.31005V8.79005H6.7L7.09 8.00005L6 8.31005ZM13 7.69005C12.038 7.1767 10.9231 7.02757 9.86 7.27005H9.66H9.49L8.35 7.58005L7.79 8.71005H15L13 7.69005ZM19 16.86C19.2967 16.86 19.5867 16.7721 19.8334 16.6073C20.08 16.4424 20.2723 16.2082 20.3858 15.9341C20.4994 15.66 20.5291 15.3584 20.4712 15.0674C20.4133 14.7764 20.2704 14.5092 20.0607 14.2994C19.8509 14.0896 19.5836 13.9467 19.2926 13.8889C19.0017 13.831 18.7001 13.8607 18.426 13.9742C18.1519 14.0878 17.9176 14.28 17.7528 14.5267C17.588 14.7734 17.5 15.0634 17.5 15.36C17.5 15.7579 17.658 16.1394 17.9393 16.4207C18.2206 16.702 18.6022 16.86 19 16.86ZM5 16.86C5.29667 16.86 5.58668 16.7721 5.83335 16.6073C6.08003 16.4424 6.27229 16.2082 6.38582 15.9341C6.49935 15.66 6.52906 15.3584 6.47118 15.0674C6.4133 14.7764 6.27044 14.5092 6.06066 14.2994C5.85088 14.0896 5.58361 13.9467 5.29263 13.8889C5.00166 13.831 4.70007 13.8607 4.42598 13.9742C4.15189 14.0878 3.91762 14.28 3.7528 14.5267C3.58797 14.7734 3.5 15.0634 3.5 15.36C3.5 15.7579 3.65804 16.1394 3.93934 16.4207C4.22065 16.702 4.60217 16.86 5 16.86ZM1 11.79H1.5C1.63261 11.79 1.75978 11.8427 1.85355 11.9365C1.94732 12.0303 2 12.1574 2 12.29C2 12.4227 1.94732 12.5498 1.85355 12.6436C1.75978 12.7374 1.63261 12.79 1.5 12.79H1V14.29C1 14.4227 1.05268 14.5498 1.14645 14.6436C1.24022 14.7374 1.36739 14.79 1.5 14.79H2.57C2.6976 14.2426 3.00669 13.7544 3.44699 13.4049C3.88728 13.0555 4.43287 12.8653 4.995 12.8653C5.55713 12.8653 6.10272 13.0555 6.54301 13.4049C6.98331 13.7544 7.2924 14.2426 7.42 14.79H16.57C16.6976 14.2426 17.0067 13.7544 17.447 13.4049C17.8873 13.0555 18.4329 12.8653 18.995 12.8653C19.5571 12.8653 20.1027 13.0555 20.543 13.4049C20.9833 13.7544 21.2924 14.2426 21.42 14.79H22.5C22.6326 14.79 22.7598 14.7374 22.8536 14.6436C22.9473 14.5498 23 14.4227 23 14.29V12.79H22.5C22.3674 12.79 22.2402 12.7374 22.1464 12.6436C22.0527 12.5498 22 12.4227 22 12.29C22 12.1574 22.0527 12.0303 22.1464 11.9365C22.2402 11.8427 22.3674 11.79 22.5 11.79H23V11.29C22.9963 11.2173 22.9779 11.146 22.9459 11.0806C22.9139 11.0151 22.869 10.9568 22.8138 10.9091C22.7587 10.8615 22.6945 10.8255 22.6251 10.8033C22.5557 10.7811 22.4825 10.7732 22.41 10.78L17 9.79005H5.5C5.36739 9.79005 5.24022 9.73737 5.14645 9.6436C5.05268 9.54983 5 9.42265 5 9.29005V8.58005L1.37 9.58005C1.27347 9.60516 1.18666 9.65858 1.12072 9.73342C1.05479 9.80826 1.01274 9.90112 1 10V11.79ZM8.5 12.79H15.5C15.6326 12.79 15.7598 12.8427 15.8536 12.9365C15.9473 13.0303 16 13.1574 16 13.29C16 13.4227 15.9473 13.5498 15.8536 13.6436C15.7598 13.7374 15.6326 13.79 15.5 13.79H8.5C8.36739 13.79 8.24021 13.7374 8.14645 13.6436C8.05268 13.5498 8 13.4227 8 13.29C8 13.1574 8.05268 13.0303 8.14645 12.9365C8.24021 12.8427 8.36739 12.79 8.5 12.79Z" fill="white"/>
</g>
<defs>
<clipPath id="clip0_1776_1419">
<rect width="24" height="24" fill="white" transform="matrix(-1 0 0 1 24 0)"/>
</clipPath>
</defs>
</svg>
