<svg width="15" height="24" viewBox="0 0 15 24" fill="none" xmlns="http://www.w3.org/2000/svg">
<g clip-path="url(#clip0_1775_1379)">
<path d="M14.2112 0.00183105C14.6258 0.00183105 14.9611 0.333773 14.9611 0.744304V23.2347C14.9611 23.6449 14.6258 23.9772 14.2112 23.9772H0.78159C0.367346 23.9772 0.0319824 23.6449 0.0319824 23.2347V0.744304C0.0319824 0.333773 0.367346 0.00183105 0.78159 0.00183105H14.2112Z" fill="#94A3B8"/>
<path d="M0.323242 3.33569H14.6792V23.1896C14.6792 23.3547 14.651 23.4568 14.5397 23.5676C14.4189 23.6877 14.313 23.6985 14.1217 23.6985L0.751876 23.6998C0.646527 23.6998 0.565728 23.6662 0.478518 23.5924C0.37051 23.4998 0.323242 23.3843 0.323242 23.2621V3.33569Z" fill="#F8FAFC"/>
<path d="M14.6792 2.33679H0.323242V3.35679H14.6792V2.33679Z" fill="#F8FAFC"/>
<path d="M14.6792 1.3147H0.323242V2.33474H14.6792V1.3147Z" fill="#94A3B8"/>
<path d="M0.729071 0.277222H14.264C14.4807 0.277222 14.6806 0.486327 14.6806 0.690414V1.34156H0.323242L0.32455 0.768916V0.721265C0.32455 0.490385 0.502326 0.300044 0.729071 0.277222Z" fill="#F8FAFC"/>
<path d="M14.2112 0.00183105C14.6258 0.00183105 14.9611 0.333773 14.9611 0.744304V23.2347C14.9611 23.6449 14.6258 23.9772 14.2112 23.9772H0.78159C0.367346 23.9772 0.0319824 23.6449 0.0319824 23.2347V0.744304C0.0319824 0.333773 0.367346 0.00183105 0.78159 0.00183105H14.2112ZM14.2112 0.298209H0.78159C0.532695 0.298209 0.331503 0.498238 0.331503 0.744304V23.2347C0.331503 23.4811 0.532738 23.6798 0.78159 23.6798H14.2112C14.4601 23.6798 14.6613 23.4811 14.6613 23.2347V0.744304C14.6613 0.498282 14.4601 0.298209 14.2112 0.298209Z" fill="#94A3B8"/>
<path d="M7.23222 4.5957C7.23222 4.5957 7.22315 4.68228 7.20339 4.73298C7.18395 4.77994 7.13328 4.81153 7.13663 4.84303C7.13999 4.87393 7.17287 4.91119 7.22384 4.93698C7.27381 4.96316 7.29392 4.98332 7.34524 4.99642C7.39285 5.0082 7.45325 5.04306 7.47034 5.00314C7.48748 4.96251 7.46166 4.91316 7.4328 4.86586C7.38248 4.7833 7.35701 4.76314 7.28288 4.64968C7.2671 4.62524 7.25472 4.59902 7.23222 4.5957Z" fill="#94A3B8"/>
<path d="M6.85623 13.5155C6.86125 13.5007 6.97998 13.5759 7.04168 13.6122C7.17149 13.69 7.22984 13.7363 7.34456 13.8223C7.43548 13.8914 7.47939 13.927 7.57065 14.0055C7.68263 14.1022 7.74302 14.1848 7.77324 14.166C7.81684 14.1136 7.70181 13.9605 7.60013 13.8774C7.50123 13.7954 7.39893 13.729 7.3201 13.6773C7.21845 13.6095 7.20939 13.594 7.05747 13.492C6.89412 13.3826 6.75328 13.245 6.75328 13.245L6.5946 13.1202L6.3461 12.9104L6.06973 12.6556L5.86113 12.423C5.86113 12.423 5.69879 12.2243 5.67298 12.186C5.64681 12.1481 5.57033 12.0252 5.50732 11.9212C5.45094 11.8279 5.34162 11.6829 5.33155 11.6705C5.27251 11.5989 5.13769 11.6278 4.98101 11.5355C4.79085 11.4231 4.74489 11.3204 4.74489 11.3204C4.74489 11.3204 4.73783 11.3053 4.73046 11.2972C4.7234 11.2888 4.70901 11.2784 4.70901 11.2784L4.60937 11.209L4.55234 11.1714C4.55234 11.1714 4.50908 11.1354 4.45475 11.1123C4.40007 11.0881 4.27832 11.0173 4.27832 11.0173L4.06065 10.8783C4.06065 10.8783 3.97545 10.8099 3.94728 10.7871C3.91846 10.7652 3.86478 10.734 3.86478 10.734C3.86478 10.734 3.83055 10.7169 3.82017 10.7162C3.80979 10.7155 3.76453 10.7115 3.76453 10.7115C3.76453 10.7115 3.72258 10.7004 3.67998 10.7505C3.63738 10.8008 3.6478 10.774 3.71722 11.0572C3.74469 11.1687 3.74203 11.5617 3.77155 11.6815C3.8091 11.8352 3.9171 12.034 3.92818 12.0574C3.93895 12.0806 3.94662 12.1665 3.94662 12.1665C3.94662 12.1665 3.94196 12.236 3.94933 12.28C3.98221 12.4831 4.27902 12.3494 4.34447 12.6281C4.40888 12.903 4.30588 13.1772 4.30588 13.1772C4.30588 13.1772 4.24213 13.3135 4.15191 13.3349C4.06205 13.3558 3.92251 13.1564 3.82157 12.995C3.72197 12.8362 3.64048 12.6281 3.61431 12.562C3.58815 12.4958 3.57437 12.4814 3.5442 12.4334C3.49959 12.3619 3.4637 12.375 3.41373 12.2622C3.36341 12.1495 3.40802 12.1041 3.38556 12.0058C3.37248 11.9514 3.36075 11.9454 3.34366 11.8675C3.32722 11.79 3.30507 11.5433 3.30507 11.5433L3.27354 11.3137C3.27354 11.3137 3.26247 11.209 3.24808 11.1432C3.19811 10.9136 3.18066 10.6914 3.18066 10.6914L3.17129 10.6001L3.16793 10.5058C3.16793 10.5058 3.16492 10.4605 3.176 10.4138C3.18707 10.3672 3.20957 10.3286 3.20957 10.3286C3.20957 10.3286 3.25588 10.2511 3.26391 10.2316C3.27162 10.2131 3.3662 10.1031 3.3662 10.1031C3.3662 10.1031 3.41582 10.0618 3.49667 10.0124C3.57786 9.96307 3.65064 9.96642 3.65064 9.96642C3.65064 9.96642 3.67209 9.96442 3.81568 9.98222C3.95923 9.99998 4.25439 10.0785 4.32886 10.0977C4.40229 10.1175 4.4902 10.1484 4.54719 10.1802C4.71119 10.2695 4.76085 10.2316 4.63039 10.1293C4.54248 10.0605 4.51771 10.0296 4.4469 9.96516C4.38716 9.91009 4.34024 9.87348 4.29564 9.82282C4.25103 9.77111 4.12392 9.58352 4.12392 9.58352L4.04443 9.46605C4.04443 9.46605 4.00183 9.41774 3.99476 9.41434C3.98809 9.41032 3.9666 9.39387 3.9666 9.39387C3.9666 9.39387 3.91396 9.39653 3.85959 9.38615C3.8046 9.37506 3.77909 9.4523 3.77909 9.4523C3.77909 9.4523 3.66101 9.6728 3.54097 9.80776C3.34645 10.0269 3.20691 10.176 3.13549 10.2927C3.0352 10.4545 3.05735 10.6318 3.00568 10.7137C2.9755 10.7617 2.95907 10.7687 2.94263 10.8107C2.89231 10.9379 3.0751 11.0077 3.03319 11.1486C2.96644 11.3722 2.44322 11.5934 2.37376 11.5564C2.30164 11.5185 2.36068 11.2161 2.38484 11.1184C2.40965 11.0201 2.48308 10.8751 2.48984 10.8677C2.4962 10.8607 2.51399 10.8264 2.51931 10.7976C2.52503 10.7687 2.52703 10.7033 2.53039 10.667C2.53375 10.6304 2.54883 10.5727 2.54883 10.5727C2.54883 10.5727 2.55084 10.5603 2.5971 10.46C2.64372 10.3589 2.81412 10.124 2.93622 9.89975C3.01671 9.75339 3.05024 9.66481 3.13074 9.51811C3.20487 9.38353 3.33197 9.17809 3.33197 9.17809C3.33197 9.17809 3.38561 9.07336 3.41077 9.03444C3.43628 8.99447 3.48991 8.91898 3.54023 8.84445C3.5909 8.77026 3.60328 8.71454 3.66934 8.65345C3.72402 8.60244 3.76126 8.57525 3.83268 8.55243C3.93899 8.51717 4.01181 8.53603 4.12048 8.56622C4.23315 8.59707 4.31064 8.64878 4.38446 8.70987C4.45789 8.77166 4.51257 8.83978 4.51257 8.83978L4.54846 8.8928L4.57056 8.90589L4.63902 8.94987L4.79565 9.05355C4.79565 9.05355 5.16729 9.30664 5.18809 9.32039C5.20789 9.33348 5.2746 9.3882 5.28768 9.39256C5.30146 9.39658 5.4004 9.28914 5.59462 9.15527C5.81931 8.99918 5.8988 9.01092 5.97332 8.97034C6.04675 8.92971 6.07693 8.89616 6.13466 8.83842C6.22187 8.75115 6.22252 8.7045 6.32146 8.58267C6.4211 8.46119 6.51433 8.39303 6.51433 8.39303C6.51433 8.39303 6.52806 8.37928 6.70553 8.17856C6.88261 7.97853 6.9611 7.82711 6.9611 7.82711L7.05838 7.6321C7.05838 7.6321 7.19923 7.32904 7.24453 7.20917C7.29014 7.08904 7.29014 7.04907 7.29014 7.04907C7.29014 7.04907 7.29681 7.01752 7.26263 6.95643C7.22739 6.89565 7.19116 6.92318 7.12375 6.93697C6.99463 6.9645 6.91614 6.93091 6.78568 6.90813C6.66629 6.88827 6.60389 6.8524 6.48415 6.83259C6.36276 6.81213 6.29199 6.79201 6.1702 6.80375C6.15175 6.80576 6.11456 6.81348 6.09673 6.8195C6.02796 6.84232 6.00886 6.84769 5.95789 6.87723C5.89885 6.90477 5.85995 6.91349 5.79454 6.91515C5.74924 6.9165 5.72177 6.91786 5.67987 6.90141C5.651 6.89032 5.63456 6.88194 5.61175 6.86148C5.59802 6.84904 5.59065 6.84097 5.58023 6.82487C5.57892 6.81213 5.57487 6.81278 5.58729 6.79201C5.59937 6.77085 5.61446 6.76714 5.61446 6.76714L5.67014 6.75339C5.67014 6.75339 5.74863 6.73293 5.756 6.73088C5.76306 6.72887 5.83784 6.70469 5.87068 6.69431C5.90391 6.68392 5.94014 6.66477 5.94014 6.66477C5.94014 6.66477 5.96024 6.63256 5.95252 6.6141C5.9428 6.59325 5.89819 6.59128 5.89819 6.59128C5.89819 6.59128 5.8358 6.6141 5.82877 6.61611C5.82206 6.61747 5.72242 6.64897 5.72242 6.64897C5.72242 6.64897 5.64428 6.66612 5.58359 6.68052C5.52254 6.69426 5.43533 6.70133 5.43533 6.70133L5.40917 6.69426C5.40917 6.69426 5.37965 6.67445 5.37498 6.65368C5.37062 6.63522 5.36792 6.62144 5.36456 6.60032C5.35148 6.52308 5.33574 6.47643 5.35418 6.40029C5.36125 6.36839 5.36861 6.35058 5.38235 6.32109C5.39408 6.29656 5.4018 6.28247 5.41689 6.2593L5.46489 6.18075L5.55546 6.04683C5.58664 6.01528 5.60713 5.99953 5.64633 5.97736C5.70402 5.94516 5.73755 5.93608 5.80968 5.92801C5.88045 5.92029 5.89017 5.92098 5.99046 5.89847C6.09141 5.87565 6.16287 5.83572 6.16287 5.83572C6.16287 5.83572 6.40405 5.74709 6.55091 5.67492C6.70484 5.59943 6.77194 5.51883 6.93127 5.45643C6.99869 5.43025 7.03793 5.41781 7.10735 5.40005C7.11607 5.39434 7.12043 5.38897 7.12314 5.37854C7.12985 5.35336 7.09095 5.34162 7.06409 5.34429C7.03994 5.34629 6.98495 5.37182 6.97252 5.34429C6.96311 5.32317 7.0228 5.31073 7.0228 5.31073C7.0228 5.31073 7.05097 5.29764 7.05167 5.28189C7.05236 5.25771 7.01112 5.27346 6.99263 5.27146C6.89905 5.26103 6.89168 5.24392 6.82693 5.22817C6.7508 5.20906 6.70959 5.18554 6.6304 5.18218C6.56064 5.17947 6.49523 5.19426 6.45132 5.20465C6.40806 5.21573 6.40671 5.1731 6.4238 5.16472C6.54625 5.10765 6.54891 5.10293 6.63546 5.09892C6.68273 5.09691 6.74883 5.10699 6.7562 5.11066C6.76327 5.11467 6.85784 5.11 6.882 5.08517C6.90681 5.061 6.80452 5.06235 6.7562 5.0432C6.71164 5.02544 6.64353 5.02042 6.64488 4.99083C6.64723 4.96129 6.68011 4.97774 6.70357 4.97172C6.73305 4.96465 6.75018 4.96535 6.78036 4.96133C6.83473 4.95396 6.8394 4.9489 6.91989 4.94222C6.99939 4.9345 7.11411 4.9684 7.11411 4.9684C7.11411 4.9684 7.2345 5.02181 7.29354 5.05C7.35258 5.07749 7.42401 5.09194 7.42401 5.09194C7.42401 5.09194 7.50782 5.10368 7.57161 5.06375C7.63632 5.02413 7.59978 4.99794 7.57728 4.96138C7.55513 4.92712 7.527 4.87746 7.56821 4.78347C7.60479 4.70157 7.62389 4.60592 7.63431 4.59719C7.64744 4.5868 7.69806 4.66029 7.7309 4.69053C7.84863 4.80062 8.0043 4.85499 8.1512 5.08522C8.16263 5.10368 8.21696 5.07413 8.38732 5.10032C8.55768 5.1265 8.70664 5.30907 8.74423 5.35275C8.78316 5.39669 8.83344 5.39434 8.83344 5.39434L8.91529 5.40542L9.21241 5.41044C9.21241 5.41044 9.34728 5.38626 9.42507 5.41585C9.4794 5.43632 9.66053 5.55749 9.57803 5.60344C9.52034 5.63569 9.46601 5.56487 9.41369 5.56151C9.35194 5.55749 9.32513 5.56923 9.2701 5.58298C9.15472 5.61186 8.90722 5.6867 8.99709 5.7169C9.00376 5.71956 9.01654 5.72157 9.01654 5.72157L9.06079 5.72929C9.06079 5.72929 9.1695 5.75412 9.23521 5.77995C9.33446 5.81922 9.38146 5.86256 9.47268 5.91623C9.52497 5.94642 9.54781 5.97667 9.60481 5.99377C9.65713 6.00891 9.69066 5.99377 9.74434 6.00285C9.81476 6.01528 9.85431 6.02973 9.91876 6.06058C10.0146 6.10657 10.0495 6.16229 10.1354 6.22404C10.1783 6.25524 10.2145 6.25995 10.2468 6.30193C10.2542 6.31131 10.2602 6.31637 10.2636 6.32741C10.275 6.36568 10.2005 6.34317 10.1609 6.33684C10.1173 6.32947 10.0992 6.30795 10.059 6.28949C9.9993 6.2613 9.97109 6.23041 9.90603 6.21867C9.85907 6.2096 9.8309 6.21666 9.78263 6.21933C9.73566 6.22133 9.71085 6.2284 9.66385 6.22906C9.58405 6.23041 9.53909 6.22338 9.46061 6.20689C9.3727 6.18848 9.32909 6.15422 9.24193 6.13607C9.14329 6.1156 8.96892 6.03104 8.98566 6.1156C8.99438 6.15623 9.08696 6.19044 9.08696 6.19044C9.08696 6.19044 9.15066 6.22469 9.21106 6.25153C9.27145 6.27771 9.30494 6.31768 9.30494 6.31768L9.34654 6.34858C9.34654 6.34858 9.38944 6.40766 9.44582 6.47443C9.50081 6.54023 9.59875 6.53818 9.59875 6.53818C9.59875 6.53818 9.65779 6.53818 9.7852 6.56436C9.912 6.59054 10.0428 6.66904 10.0428 6.66904C10.0428 6.66904 10.1414 6.73685 10.1991 6.80501C10.2561 6.87317 10.2233 6.90738 10.2159 6.91441C10.2092 6.92178 10.2118 6.91843 10.2038 6.92179C10.1971 6.92515 10.126 6.83586 10.126 6.83586L10.075 6.79258C10.075 6.79258 10.0254 6.75767 9.96101 6.73685C9.89661 6.71639 9.87511 6.73013 9.87511 6.73013C9.87511 6.73013 9.73828 6.7684 9.61889 6.76504C9.50081 6.76168 9.43911 6.71434 9.43911 6.71434L9.36398 6.66398C9.36398 6.66398 9.25126 6.55825 9.2472 6.6083C9.2445 6.64221 9.29687 6.67978 9.29687 6.67978C9.29687 6.67978 9.33311 6.71634 9.35726 6.73956C9.40287 6.7845 9.42171 6.80702 9.47399 6.85362C9.52632 6.90066 9.5585 6.90066 9.5585 6.90066C9.5585 6.90066 9.58667 6.90734 9.59739 6.90939C9.60816 6.9114 9.62696 6.91646 9.62696 6.91646C9.62696 6.91646 9.6444 6.92318 9.7262 6.95643C9.80735 6.98929 9.89526 7.06081 9.89526 7.06081C9.89526 7.06081 9.90332 7.06753 9.9154 7.06989C9.92744 7.07124 9.95159 7.08333 9.95831 7.08533C9.96568 7.08699 9.98648 7.08699 10.0334 7.09371C10.0811 7.10078 10.063 7.13098 10.063 7.13098L10.0549 7.14237L10.016 7.16855C10.016 7.16855 9.96568 7.18299 9.93145 7.18465C9.89656 7.18666 9.84694 7.16724 9.84694 7.16724L9.74159 7.12762C9.74159 7.12762 9.63498 7.09943 9.61213 7.09572C9.58933 7.09236 9.49409 7.07325 9.478 7.06989C9.46257 7.06622 9.41495 7.04907 9.40222 7.0417C9.38944 7.03467 9.36598 7.02996 9.30829 7.00177C9.25126 6.97358 9.22845 6.94103 9.15738 6.91851C9.08561 6.89569 9.042 6.89102 8.98832 6.92829C8.89575 6.99204 9.12782 7.00247 9.24324 7.06016C9.41364 7.14407 9.50953 7.20581 9.54978 7.29649C9.59068 7.38743 9.63162 7.42033 9.63162 7.42033C9.63162 7.42033 9.75171 7.48077 9.80534 7.54417C9.83486 7.57838 9.83892 7.60661 9.8684 7.64083C9.93411 7.71802 10.0616 7.71365 10.0871 7.77911C10.1113 7.84016 9.98377 7.81266 9.91736 7.8066C9.79797 7.79486 9.76911 7.68542 9.65774 7.64148C9.59473 7.6163 9.55449 7.6163 9.49004 7.59418C9.37265 7.55556 9.31767 7.5049 9.20024 7.46833C9.12912 7.44651 9.00031 7.35287 9.01645 7.425C9.01911 7.44245 9.02984 7.45589 9.0345 7.46632C9.04056 7.47671 9.07008 7.51498 9.07008 7.51498C9.07008 7.51498 9.10963 7.56734 9.12773 7.58113C9.14452 7.59557 9.2203 7.65261 9.32896 7.71169C9.43632 7.77077 9.5302 7.88423 9.5302 7.88423C9.5302 7.88423 9.56242 7.93057 9.57786 7.96282C9.59395 7.99908 9.58252 8.01012 9.60803 8.06048C9.63149 8.11048 9.64292 8.12021 9.6751 8.15111C9.75424 8.2273 9.83744 8.21216 9.93803 8.25348C9.96555 8.26522 9.96755 8.26923 9.99707 8.30078C10.0266 8.33198 9.99167 8.34538 9.99167 8.34538C9.99167 8.34538 9.87969 8.37426 9.80722 8.3682C9.71334 8.36082 9.67104 8.33194 9.57982 8.28629C9.48725 8.241 9.43898 8.15944 9.4296 8.15443C9.42154 8.14901 9.39873 8.12488 9.38129 8.11245C9.36389 8.10005 9.31889 8.09063 9.27864 8.07955C9.23774 8.06851 9.21489 8.06645 9.17404 8.05537C9.11835 8.03957 9.06062 8.01509 9.03446 8.00672C9.00829 7.99764 8.9486 7.9869 8.90499 8.01274C8.81779 8.06445 9.04047 8.09931 9.10959 8.17354C9.14513 8.2108 9.15986 8.23698 9.19344 8.27626C9.21895 8.30645 9.22968 8.32762 9.26125 8.35109C9.28265 8.36685 9.32225 8.38395 9.32225 8.38395C9.32225 8.38395 9.37588 8.40882 9.45437 8.45211C9.53286 8.4954 9.62473 8.61789 9.62473 8.61789L9.68042 8.70315L9.71329 8.75181L9.72202 8.77432L9.73405 8.80181C9.73405 8.80181 9.77434 8.85418 9.80382 8.87128C9.83338 8.88909 9.82797 8.90453 9.82797 8.90453C9.82797 8.90453 9.82466 8.91531 9.80382 8.92705C9.78372 8.93949 9.77229 8.92906 9.74282 8.92033C9.71329 8.91195 9.69385 8.88376 9.66838 8.86325C9.64152 8.84178 9.61335 8.78977 9.56574 8.76023C9.52348 8.73475 9.4685 8.72567 9.447 8.71895C9.4262 8.71127 9.37388 8.67837 9.35308 8.66929C9.33297 8.66122 9.27864 8.63639 9.27864 8.63639C9.27864 8.63639 9.17404 8.578 9.11626 8.56225C9.05861 8.5461 9.09546 8.58136 9.09546 8.58136C9.09546 8.58136 9.14718 8.66192 9.19675 8.69412C9.2612 8.73675 9.35172 8.77437 9.3222 8.80888C9.30206 8.8314 9.27524 8.82333 9.24572 8.81997C9.19745 8.81429 9.13906 8.75652 9.13906 8.75652C9.13906 8.75652 9.11495 8.74077 9.00694 8.70651C8.89959 8.67125 8.93918 8.73034 8.96399 8.76224C8.98819 8.79313 9.02107 8.81089 9.02107 8.81089L9.0942 8.84379L9.12773 8.85418C9.12773 8.85418 9.15729 8.85954 9.25453 8.88237C9.35177 8.90453 9.40549 8.95188 9.40549 8.95188C9.40549 8.95188 9.45777 9.00053 9.5302 9.05425C9.60398 9.10862 9.67645 9.12241 9.7167 9.12778C9.75694 9.1328 9.75559 9.16098 9.75559 9.16098C9.75559 9.16098 9.76095 9.18686 9.75834 9.19524C9.75699 9.20397 9.74827 9.21104 9.7395 9.21104C9.73143 9.21104 9.72747 9.2144 9.71674 9.22011C9.70601 9.22548 9.66441 9.2322 9.66441 9.2322C9.66441 9.2322 9.55575 9.22884 9.46989 9.20768C9.38539 9.18686 9.31021 9.12778 9.30215 9.12446C9.29548 9.1211 9.21629 9.07716 9.1613 9.0597C9.10832 9.0419 9.02312 9.04962 9.0137 9.05299C9.00502 9.05634 8.97546 9.06106 8.92518 9.07581C8.87421 9.08925 8.93792 9.10866 8.93792 9.10866L8.97415 9.11202L9.06066 9.11875C9.06066 9.11875 9.15058 9.12913 9.22636 9.15732C9.30215 9.18485 9.35181 9.24058 9.40213 9.29159C9.45241 9.3416 9.50813 9.3745 9.50813 9.3745L9.54838 9.40068L9.56918 9.41643L9.57454 9.43018C9.57454 9.43018 9.57254 9.43725 9.56918 9.44593C9.56582 9.45501 9.55309 9.46168 9.55309 9.46168C9.55309 9.46168 9.5343 9.45832 9.52627 9.45832C9.51686 9.45832 9.45986 9.42813 9.41761 9.40967C9.37401 9.39056 9.35186 9.3724 9.30489 9.36097C9.26465 9.35124 9.21101 9.34688 9.19889 9.35058C9.18686 9.35394 9.09825 9.36638 9.02984 9.37105C8.96146 9.37642 8.90238 9.37742 8.82188 9.36769C8.7072 9.35395 8.55494 9.26327 8.53545 9.28849C8.4959 9.34151 8.61664 9.35661 8.67568 9.39051C8.75617 9.43716 8.89571 9.47914 8.89571 9.47914C8.89571 9.47914 8.99766 9.50161 9.05735 9.5298C9.18816 9.59059 9.22776 9.68052 9.33306 9.77517C9.39075 9.82819 9.43771 9.85101 9.5155 9.86244C9.58261 9.87221 9.58126 9.86414 9.68722 9.84333C9.79388 9.82221 9.85832 9.72115 9.88915 9.75811C9.89521 9.76517 9.89251 9.77185 9.89116 9.78228C9.88915 9.79267 9.88048 9.81182 9.88048 9.81182C9.88048 9.81182 9.8684 9.82893 9.8496 9.84839C9.83015 9.8675 9.75703 9.90747 9.71879 9.92322C9.68055 9.93902 9.58667 9.9652 9.46859 9.96149C9.3505 9.95813 9.1842 9.8675 9.1842 9.8675L9.06481 9.81714C9.06481 9.81714 9.00978 9.79131 8.97223 9.77722C8.87295 9.7396 8.80989 9.74296 8.7079 9.71613C8.64485 9.69902 8.60329 9.68122 8.54626 9.66948C8.48857 9.65709 8.52145 9.67991 8.52681 9.68794C8.55363 9.7245 8.58982 9.73624 8.63547 9.75741C8.69587 9.78695 8.73812 9.78093 8.79982 9.80711C8.86893 9.83499 8.92933 9.87427 8.96757 9.89909C9.00511 9.92327 9.03332 9.9508 9.07021 9.98907L9.19697 10.0978C9.19697 10.0978 9.22649 10.122 9.22985 10.1321C9.23316 10.1425 9.24725 10.1686 9.24058 10.2106C9.23316 10.2526 9.19898 10.2231 9.19898 10.2231L9.16545 10.2016L9.13187 10.1707L9.07885 10.1267C9.07885 10.1267 9.03328 10.0854 8.95475 10.0455C8.87696 10.0049 8.78303 9.99479 8.78303 9.99479C8.78303 9.99479 8.69984 9.9824 8.70254 10.0086C8.70655 10.0344 8.72526 10.0368 8.79101 10.0539C8.85742 10.071 8.90103 10.1046 8.90103 10.1046C8.90103 10.1046 8.96883 10.1549 9.01776 10.2106C9.06603 10.2664 9.08015 10.3204 9.08015 10.3204C9.08015 10.3204 9.10497 10.366 9.16736 10.4264C9.22976 10.4875 9.26264 10.4664 9.25924 10.496C9.25588 10.5255 9.22837 10.5309 9.22837 10.5309C9.22837 10.5309 9.21228 10.5295 9.20561 10.5295C9.19889 10.5295 9.1828 10.5204 9.16536 10.5137C9.14792 10.507 9.08216 10.4613 9.08216 10.4613C9.08216 10.4613 8.97891 10.3775 8.96748 10.3694C8.9547 10.3603 8.85747 10.2875 8.85747 10.2875C8.85747 10.2875 8.79978 10.2506 8.75883 10.2298C8.71658 10.2093 8.6609 10.1878 8.62937 10.1774C8.59854 10.1673 8.54081 10.164 8.54081 10.164C8.54081 10.164 8.47174 10.1536 8.42949 10.1378C8.36308 10.1123 8.2859 10.0414 8.27722 10.0381C8.2678 10.0344 8.2061 10.0132 8.19402 10.0153C8.18199 10.0166 8.15377 10.1334 8.1471 10.2009C8.11893 10.4835 8.19402 10.6711 8.31075 10.9303C8.47911 11.3068 8.94799 11.7751 8.94799 11.7751C8.94799 11.7751 9.06607 11.8419 9.11574 11.8818C9.25593 11.9916 9.48803 12.147 9.69398 12.3524C9.8697 12.5286 10.1032 12.8411 10.1032 12.8411C10.1032 12.8411 10.2386 13.0297 10.3017 13.1633C10.3782 13.3271 10.44 13.5769 10.44 13.5769C10.44 13.5769 10.4453 13.6198 10.4493 13.6292C10.4547 13.6379 10.4667 13.6493 10.4748 13.6493L10.5567 13.652C10.5647 13.652 10.6579 13.6454 10.7197 13.6299C10.7807 13.6144 10.9256 13.548 11.0222 13.4977C11.1175 13.4466 11.2322 13.3499 11.2322 13.3499C11.2322 13.3499 11.2543 13.3311 11.3657 13.2063C11.4784 13.0815 11.5508 12.8942 11.5783 12.8233C11.6052 12.7532 11.6273 12.6179 11.6434 12.387C11.6608 12.1551 11.6293 11.9107 11.6293 11.9107C11.6293 11.9107 11.5871 11.5697 11.5615 11.4535C11.5361 11.3381 11.4744 11.1488 11.4744 11.1488C11.4744 11.1488 11.4314 10.9803 11.418 10.8739C11.4039 10.7675 11.4019 10.5943 11.4019 10.5943C11.4019 10.5943 11.4019 10.4883 11.4361 10.2923C11.4717 10.0972 11.5911 9.90053 11.5911 9.90053C11.5911 9.90053 11.6246 9.83438 11.7535 9.68C11.8856 9.5219 11.9278 9.49707 12.058 9.40273C12.1613 9.32855 12.2947 9.20907 12.3384 9.23726C12.3867 9.26746 12.2914 9.32789 12.2592 9.35944C12.178 9.44 12.0265 9.58229 11.9037 9.79677C11.7964 9.9824 11.7561 10.1052 11.7294 10.2264C11.7025 10.3473 11.7139 10.4802 11.7173 10.5255C11.7213 10.5708 11.7461 10.5544 11.7461 10.5544C11.7461 10.5544 12.007 10.3446 12.1486 10.1858C12.3022 10.014 12.439 9.70819 12.4927 9.70552C12.5289 9.70317 12.5457 9.78507 12.537 9.82299C12.5035 9.98174 12.4921 10.0016 12.4403 10.1069C12.3813 10.2278 12.3264 10.2815 12.2445 10.3929C12.1586 10.5097 12.1164 10.5544 12.0473 10.7091C11.9474 10.9316 12.0057 11.1035 12.0057 11.1035C12.0057 11.1035 12.0178 11.2079 12.0647 11.2065C12.1433 11.2038 12.3156 10.986 12.4283 10.8077C12.5116 10.6772 12.5417 10.5261 12.5961 10.4469C12.6457 10.3768 12.6894 10.5611 12.6679 10.6698C12.643 10.799 12.5793 10.9152 12.4391 11.0981C12.3023 11.2766 12.3063 11.4465 12.3063 11.4465C12.3063 11.4465 12.2922 11.524 12.2808 11.6932C12.2701 11.8616 12.3184 12.1175 12.3184 12.1175C12.3184 12.1175 12.3612 12.3313 12.37 12.4934C12.3781 12.6565 12.3727 13.0267 12.2204 13.315C12.16 13.4305 12.0305 13.5903 12.0305 13.5903C12.0305 13.5903 11.9306 13.693 11.8487 13.7527C11.7669 13.8125 11.5703 13.9058 11.5703 13.9058C11.5703 13.9058 11.4342 13.9528 11.4154 13.9568C11.3953 13.9622 11.3832 13.979 11.3832 13.979C11.3832 13.979 11.3953 14.0052 11.4006 14.0159C11.4053 14.0267 11.4435 14.1206 11.4435 14.1206C11.4435 14.1206 11.4844 14.2535 11.4999 14.3589C11.5153 14.4643 11.4972 14.4885 11.4825 14.5691C11.4677 14.6463 11.4342 14.6106 11.4254 14.7624C11.4181 14.8967 11.4785 14.9637 11.4677 15.1142C11.4631 15.18 11.3885 15.0309 11.3523 14.9679C11.2758 14.8308 11.2939 14.6201 11.2926 14.5677C11.2906 14.5154 11.2865 14.4576 11.2671 14.3919C11.2436 14.3059 11.2081 14.2395 11.1685 14.1871C11.1282 14.1354 11.086 14.1059 11.0719 14.1113C11.0578 14.116 11.0564 14.1435 11.0564 14.1569C11.0558 14.1717 11.0839 14.2214 11.09 14.2321C11.0973 14.2422 11.1477 14.3342 11.1477 14.3342C11.1477 14.3342 11.1698 14.4053 11.1785 14.5437C11.1873 14.6806 11.145 14.8511 11.145 14.8511C11.145 14.8511 11.0899 15.0424 11.0323 15.1552C10.9678 15.2794 10.825 15.4485 10.825 15.4485C10.825 15.4485 10.7224 15.5425 10.6452 15.6969C10.5694 15.8513 10.6345 15.9185 10.6063 15.9386C10.5768 15.958 10.5164 15.8493 10.5003 15.7761C10.4848 15.7077 10.4922 15.6754 10.5204 15.5989C10.5466 15.525 10.6083 15.4183 10.6083 15.4183L10.7002 15.2619C10.7002 15.2619 10.8116 15.0498 10.8464 14.8953C10.8813 14.7423 10.8411 14.5718 10.8411 14.5718C10.8411 14.5718 10.8364 14.5154 10.7982 14.5181C10.7592 14.5201 10.7325 14.5537 10.7163 14.5946C10.6848 14.6792 10.7298 14.6638 10.6814 14.8047C10.6439 14.9155 10.6331 14.9007 10.613 14.9665C10.5888 15.045 10.5761 15.1256 10.5775 15.1746C10.5795 15.2229 10.5527 15.2028 10.5527 15.2028C10.5527 15.2028 10.5057 15.1155 10.5057 15.0068C10.5057 14.9477 10.5084 14.9142 10.5151 14.8551C10.5259 14.7604 10.5648 14.6154 10.5648 14.6154C10.5648 14.6154 10.6064 14.4724 10.5976 14.3422C10.5877 14.2106 10.542 14.1865 10.542 14.1865C10.542 14.1865 10.53 14.169 10.4789 14.1717C10.4287 14.1758 10.4313 14.2664 10.4313 14.2664C10.4313 14.2664 10.4159 14.396 10.3958 14.4765C10.3401 14.6987 10.2657 14.8155 10.1342 15.0028C10.0148 15.1719 9.85313 15.321 9.7719 15.3908C9.6914 15.462 9.44321 15.6426 9.44321 15.6426L9.1521 15.8365C9.1521 15.8365 9.03672 15.9493 8.98436 16.0836C8.93072 16.2172 8.93338 16.3219 8.96421 16.4447C8.99513 16.5683 9.03938 16.6246 9.06284 16.6595C9.08565 16.6931 9.13065 16.7535 9.14539 16.8247C9.15476 16.8683 9.14809 16.8945 9.15075 16.9388C9.1535 16.9777 9.15882 16.9992 9.15747 17.0388C9.15611 17.1006 9.1675 17.1442 9.13196 17.1945C9.10645 17.2328 9.03668 17.2664 9.03668 17.2664C9.03668 17.2664 8.95758 17.3012 8.91053 17.3301C8.41545 17.6288 8.23976 17.8228 7.96069 18.1558C7.87213 18.2625 7.93723 18.2559 7.84266 18.382C7.78527 18.4573 7.6528 18.4573 7.60484 18.5472C7.53812 18.67 7.7551 18.7909 7.50454 18.899C7.18157 19.0386 6.62578 18.9385 6.61471 18.8949C6.58453 18.7754 6.72337 18.6372 6.77268 18.5821C6.99873 18.3351 7.20066 18.329 7.27479 18.1243C7.29088 18.0807 7.28452 18.0431 7.4646 17.9095C7.59106 17.8161 8.09617 17.4355 8.3169 17.1818C8.39268 17.0945 8.45774 17.0368 8.49062 16.9428C8.5242 16.8474 8.45774 16.7877 8.45774 16.7877L8.36718 16.64L8.19345 16.3292C8.19345 16.3292 8.12037 16.1641 8.08078 16.0687C8.03988 15.9734 7.96405 15.7169 7.96405 15.7169C7.96405 15.7169 7.90841 15.486 7.89895 15.3356C7.8822 15.0658 7.91909 14.9087 7.99026 14.6469C8.08213 14.3072 8.29074 14.1649 8.37393 13.8279C8.39813 13.7299 8.40345 13.5621 8.35379 13.5701C8.30683 13.5789 8.30281 13.7111 8.26662 13.7997C8.13245 14.134 7.95533 14.2804 7.85809 14.6267C7.79303 14.861 7.76622 15.0001 7.76683 15.243C7.76757 15.382 7.76216 15.3565 7.7977 15.5975C7.81178 15.6861 7.83324 15.7337 7.85944 15.8203C7.87819 15.8821 7.92851 15.9975 7.92851 15.9975C7.92851 15.9975 7.99763 16.1499 8.02178 16.2567C8.02911 16.2936 8.03857 16.3143 8.03582 16.3513C8.03116 16.4151 8.04254 16.4285 8.01171 16.4862C7.97347 16.5581 7.99689 16.6004 7.87484 16.6272C7.76617 16.65 7.54414 16.5775 7.54414 16.5775C7.54414 16.5775 6.63149 16.3009 6.04889 16.3808C5.93351 16.3962 5.87146 16.4385 5.75543 16.4365C5.64978 16.4352 5.5961 16.3526 5.49045 16.3842C5.46899 16.3902 5.46228 16.4056 5.44283 16.4184C5.28856 16.5258 5.40659 16.7044 5.00011 16.6117C4.75056 16.5546 4.44838 16.4017 4.50066 16.3056C4.57074 16.1781 4.66466 16.1572 4.86193 16.076C5.07289 15.9901 5.3895 16.0143 5.4519 16.0102C5.52803 16.0042 5.63739 15.9512 5.77353 15.9478C6.00899 15.9437 6.0509 15.972 6.0509 15.972L6.45066 16.0075L7.21575 16.017C7.21575 16.017 7.35258 16.0069 7.40691 15.9961C7.46194 15.9853 7.5052 15.8773 7.53533 15.8256C7.56489 15.7746 7.53402 15.6994 7.53402 15.6994L7.51126 15.6638L7.43844 15.5463L7.30396 15.3194L7.15471 15.0214C7.15471 15.0214 7.05712 14.814 7.00514 14.6777C6.95347 14.5421 6.9233 14.4656 6.88907 14.3253C6.85318 14.1809 6.83103 14.0641 6.82636 13.948C6.82069 13.7813 6.80962 13.6518 6.85623 13.5155Z" fill="#94A3B8"/>
<path d="M11.823 13.2389C11.984 13.0322 11.9995 12.8401 12.0088 12.5696C12.0162 12.373 11.9418 12.0699 11.9418 12.0699L11.9317 12.0477C11.9317 12.0477 11.9035 12.0111 11.8862 12.0594C11.8888 12.1021 11.8942 12.1363 11.8942 12.1363L11.9036 12.5267C11.9036 12.5267 11.8915 12.7234 11.8245 12.9261C11.7118 13.2685 11.4126 13.4209 11.369 13.5444C11.2944 13.7491 11.6305 13.488 11.823 13.2389Z" fill="#94A3B8"/>
<path d="M10.1353 13.8706C10.1353 13.8706 10.0695 13.8894 10.0682 13.9545C10.0669 14.0197 10.0843 14.076 10.0823 14.1546C10.081 14.2546 9.98904 14.3701 10.0481 14.4077C10.1494 14.4721 10.2365 14.0183 10.2057 13.9512C10.1748 13.884 10.1447 13.8699 10.1353 13.8706Z" fill="#94A3B8"/>
<path d="M8.99901 17.017C8.99901 17.017 8.98017 17.007 8.94333 17.0211C8.90714 17.0351 8.90975 17.0728 8.90975 17.0728C8.90975 17.0728 8.90238 17.1131 8.9319 17.1171C8.96147 17.1225 9.00974 17.05 9.00974 17.0419C9.00974 17.0338 8.99901 17.017 8.99901 17.017Z" fill="#94A3B8"/>
<path d="M7.92953 17.7776C7.92953 17.7776 7.91876 17.7884 7.92818 17.7957C7.93821 17.8045 7.95234 17.7937 7.95234 17.7937C7.95234 17.7937 8.13678 17.6494 8.24614 17.548C8.36152 17.4393 8.52792 17.252 8.52792 17.252C8.52792 17.252 8.5393 17.2379 8.52657 17.2258C8.51309 17.2137 8.48161 17.2325 8.45545 17.2446C8.43264 17.2567 8.41921 17.2694 8.40181 17.2836C8.38572 17.2983 8.33069 17.3547 8.33069 17.3547L8.18845 17.493L8.09854 17.5776L8.01138 17.6608L7.97514 17.7025C7.97514 17.7025 7.96572 17.7186 7.96311 17.7226C7.96036 17.7273 7.95103 17.7393 7.95103 17.7393C7.95103 17.7393 7.93755 17.7521 7.93755 17.7561C7.93755 17.7595 7.93354 17.7629 7.93354 17.7669C7.93219 17.7722 7.92953 17.7776 7.92953 17.7776Z" fill="#94A3B8"/>
<path d="M7.61068 17.9871C7.61068 17.9871 7.59089 17.971 7.55971 17.9864C7.52818 18.0032 7.49465 18.0461 7.4919 18.0509C7.48894 18.0569 7.4718 18.0797 7.48357 18.0999C7.4953 18.12 7.5352 18.0904 7.54122 18.0891C7.54693 18.0891 7.59895 18.0475 7.59895 18.0475C7.59895 18.0475 7.62913 18.0287 7.61068 17.9871Z" fill="#94A3B8"/>
<path d="M6.99999 18.606C6.99999 18.606 6.97382 18.5577 6.93959 18.5778C6.90537 18.5979 6.88662 18.6047 6.85509 18.6482C6.84973 18.6556 6.81584 18.6993 6.80978 18.7107C6.80377 18.7215 6.76989 18.7859 6.83865 18.7906C6.95673 18.7973 6.8792 18.7215 6.9198 18.6919C6.95268 18.6691 7.01438 18.6751 7.01507 18.651C7.01573 18.6268 6.99999 18.606 6.99999 18.606Z" fill="#94A3B8"/>
<path d="M4.90694 16.1329C4.90694 16.1329 4.83617 16.1504 4.8308 16.1746C4.82509 16.2001 4.87205 16.2243 4.87942 16.2256C4.88779 16.2269 4.90358 16.2457 4.95085 16.2135C4.99746 16.182 4.99545 16.1551 4.99545 16.1551C4.99545 16.1551 5.02297 16.1229 4.90694 16.1329Z" fill="#94A3B8"/>
<path d="M6.0581 16.0953C6.0581 16.0953 6.0574 16.0692 6.00743 16.0726C5.95645 16.0753 5.94573 16.0846 5.94437 16.0927C5.94272 16.1001 5.94708 16.1128 5.99234 16.1169C6.0383 16.1196 6.05674 16.1168 6.0581 16.0953Z" fill="#94A3B8"/>
<path d="M7.14649 16.1269C7.05492 16.1262 7.08378 16.1289 7.02745 16.1316C6.92515 16.137 6.86947 16.1329 6.76852 16.1262C6.62694 16.1168 6.40796 16.0819 6.40796 16.0819C6.40796 16.0819 6.38044 16.0752 6.36937 16.0933C6.35929 16.1101 6.39618 16.149 6.42906 16.1591C6.60849 16.2149 6.61822 16.2055 6.74031 16.2074C6.80842 16.2081 6.84631 16.2014 6.91407 16.1974C6.99993 16.1907 7.03983 16.2041 7.13341 16.1792C7.15787 16.1732 7.18137 16.1276 7.14649 16.1269Z" fill="#94A3B8"/>
<path d="M7.75955 15.9449C7.75955 15.9449 7.74111 15.9235 7.70317 15.9423C7.66567 15.9604 7.64282 16.0013 7.64282 16.0013C7.64282 16.0013 7.62508 16.0295 7.66297 16.0255C7.69986 16.0202 7.73304 16.0041 7.74176 15.9987C7.75149 15.9932 7.779 15.9678 7.75955 15.9449Z" fill="#94A3B8"/>
<path d="M7.22599 8.58047C7.22599 8.58047 7.48492 8.3378 7.67037 8.01695C7.78034 7.8256 7.8283 7.3802 7.73377 7.49095C7.69112 7.54166 7.6395 7.77258 7.55765 7.94372C7.44092 8.18739 7.19172 8.53247 7.19172 8.53247C7.19172 8.53247 7.13813 8.64727 7.22599 8.58047Z" fill="#94A3B8"/>
<path d="M6.19092 9.19711C6.19092 9.19711 6.1634 9.21858 6.17583 9.25284C6.18891 9.28775 6.24159 9.26156 6.24159 9.26156C6.24159 9.26156 6.36132 9.21627 6.48678 9.21156C6.61253 9.20619 6.78695 9.24376 6.78695 9.24376C6.78695 9.24376 6.8701 9.26658 6.88388 9.27195C6.89762 9.27767 6.94292 9.29948 6.95064 9.30215C6.95736 9.30516 7.00061 9.32632 7.02477 9.3045C7.04893 9.28234 6.87351 9.12293 6.69442 9.09876C6.39621 9.05813 6.20038 9.18668 6.20038 9.18668L6.19092 9.19711Z" fill="#94A3B8"/>
<path d="M4.96259 10.248C4.9837 10.2662 5.08333 10.0762 5.16649 9.956C5.22753 9.86807 5.33894 9.72106 5.33894 9.72106C5.33894 9.72106 5.38922 9.6536 5.30406 9.69122C5.26952 9.70666 5.17495 9.77879 5.10819 9.91141C5.05181 10.0242 4.94044 10.2302 4.96259 10.248Z" fill="#94A3B8"/>
<path d="M4.27363 9.42266C4.27363 9.42266 4.25213 9.49618 4.33804 9.58813C4.42455 9.68046 4.4467 9.75661 4.50173 9.70158C4.51681 9.68648 4.44805 9.56229 4.41317 9.52773C4.37728 9.49348 4.35177 9.46529 4.35177 9.46529L4.32932 9.44683L4.30045 9.43073L4.28401 9.42405C4.28401 9.42405 4.27965 9.42 4.27363 9.42266Z" fill="#94A3B8"/>
<path d="M3.99452 8.71777C3.99452 8.71777 3.90129 8.73523 3.87849 8.78052C3.85533 8.82586 3.9858 8.79833 3.9858 8.79833C3.9858 8.79833 4.07231 8.803 4.07436 8.77014C4.07636 8.73658 4.06333 8.73322 3.99452 8.71777Z" fill="#94A3B8"/>
<path d="M2.51319 11.1747C2.46557 11.161 2.45755 11.2546 2.45114 11.2848C2.44578 11.315 2.47264 11.3754 2.48367 11.3754C2.4944 11.3747 2.53229 11.3157 2.53429 11.2869C2.53634 11.2573 2.55514 11.1878 2.51319 11.1747Z" fill="#94A3B8"/>
<path d="M4.05176 13.0047C4.05176 13.0047 3.96656 12.9372 3.95348 12.9641C3.94075 12.9909 4.02359 13.1094 4.02359 13.1094C4.02359 13.1094 4.04906 13.1484 4.0883 13.1309C4.12685 13.1121 4.11312 13.0691 4.11312 13.0691C4.11312 13.0691 4.08695 13.0141 4.05176 13.0047Z" fill="#94A3B8"/>
<path d="M3.40946 11.0257C3.40946 11.0257 3.38766 11.02 3.37994 11.0461C3.37188 11.0723 3.37257 11.1149 3.36686 11.1666C3.3622 11.2069 3.37728 11.3143 3.37728 11.3143C3.37728 11.3143 3.38566 11.3996 3.40275 11.4503C3.42119 11.506 3.47016 11.5852 3.47016 11.5852C3.47016 11.5852 3.48861 11.6258 3.51141 11.6238C3.53387 11.6215 3.5285 11.5949 3.5285 11.5949C3.5285 11.5949 3.45708 11.3117 3.45507 11.2828C3.44666 11.1885 3.44666 11.0737 3.44666 11.0737L3.446 11.0566C3.446 11.0566 3.44531 11.0263 3.40946 11.0257Z" fill="#94A3B8"/>
<path d="M3.52072 10.1615C3.52072 10.1615 3.48147 10.1541 3.44528 10.2296C3.40874 10.3061 3.41646 10.337 3.41977 10.3404C3.42247 10.3437 3.4513 10.3431 3.4976 10.2722C3.54356 10.2021 3.53314 10.1752 3.53314 10.1752C3.53314 10.1752 3.53044 10.1615 3.52072 10.1615Z" fill="#94A3B8"/>
<path d="M4.60012 10.9445C4.60012 10.9445 4.64739 11.0152 4.55687 10.9988C4.46599 10.9824 4.27514 10.8317 4.1973 10.7911C4.12047 10.7504 3.99402 10.7377 4.04704 10.6901C4.05676 10.682 4.05942 10.6742 4.07451 10.6736C4.0903 10.6729 4.14262 10.6934 4.14594 10.6957C4.14864 10.697 4.28312 10.7528 4.28813 10.7541C4.29284 10.7561 4.36832 10.7884 4.42195 10.8199C4.47563 10.8517 4.5628 10.9128 4.5628 10.9128L4.60012 10.9445Z" fill="#94A3B8"/>
<path d="M7.11581 13.1121C7.14062 13.19 6.82938 12.9476 6.66267 12.8191C6.22096 12.4787 5.68026 11.7809 5.74767 11.7192C5.80336 11.6685 6.02504 11.988 6.35007 12.3401C6.69756 12.7154 7.10138 13.0658 7.11581 13.1121Z" fill="#94A3B8"/>
<path d="M8.41533 12.7785C8.31875 12.8815 8.28456 13.0134 8.3402 13.1121C8.39453 13.2081 8.41132 12.9718 8.47171 12.9023C8.52404 12.8415 8.55622 12.8513 8.64208 12.7902C8.78833 12.6872 8.53747 12.6472 8.41533 12.7785Z" fill="#94A3B8"/>
<path d="M7.86257 10.576C7.79616 10.5653 7.79817 10.6663 7.80754 10.7378C7.85184 11.0579 7.99543 11.3047 8.18721 11.5369C8.30398 11.6786 8.62395 11.931 8.6608 11.8904C8.67427 11.876 8.35626 11.6299 8.15368 11.3138C8.01013 11.0896 7.93365 10.8999 7.91555 10.715C7.91359 10.6914 7.91891 10.5851 7.86257 10.576Z" fill="#94A3B8"/>
<path d="M6.62347 5.83023C6.47922 5.90842 6.22902 5.97728 6.22902 5.97728C6.22902 5.97728 6.21759 6.00211 6.24982 5.99945C6.46418 5.9823 6.54598 5.95546 6.66005 5.90511C6.77408 5.8558 6.85692 5.71882 6.85692 5.71882C6.85692 5.71882 6.90323 5.63356 6.81737 5.70373C6.79051 5.7252 6.70261 5.78694 6.62347 5.83023Z" fill="#94A3B8"/>
<path d="M8.36367 5.28005C8.36367 5.28005 8.3147 5.26927 8.28182 5.28978C8.24894 5.3106 8.25832 5.32705 8.25832 5.32705C8.25832 5.32705 8.30933 5.36597 8.34553 5.37239C8.38176 5.37775 8.45955 5.41166 8.45694 5.38548C8.45353 5.35864 8.40997 5.31064 8.39449 5.29755C8.38045 5.28372 8.36367 5.28005 8.36367 5.28005Z" fill="#94A3B8"/>
<path d="M7.54469 6.78386C7.55301 6.80096 7.69926 6.76103 7.75564 6.72944C7.7996 6.70461 7.817 6.62135 7.817 6.62135C7.817 6.62135 7.82907 6.5408 7.81032 6.572C7.72678 6.70867 7.53657 6.76636 7.54469 6.78386Z" fill="#94A3B8"/>
<path d="M7.53994 6.4082C7.59898 6.29474 7.37791 6.52602 7.26523 6.58576C7.19647 6.62202 7.08445 6.67032 7.08445 6.67032C7.08445 6.67032 7.05493 6.70724 7.09618 6.70388C7.13743 6.70117 7.24243 6.73678 7.32763 6.67098C7.34778 6.65488 7.4363 6.52597 7.4363 6.52597C7.4363 6.52597 7.51173 6.46187 7.53994 6.4082Z" fill="#94A3B8"/>
<path d="M7.50566 6.89086C7.51033 6.90932 7.75818 6.90325 7.82027 6.88449C7.86924 6.87105 7.89606 6.78447 7.89606 6.78447C7.89606 6.78447 7.92558 6.70863 7.90007 6.73412C7.78774 6.84892 7.50135 6.8724 7.50566 6.89086Z" fill="#94A3B8"/>
<path d="M3.52479 9.16283C3.52479 9.16283 3.48725 9.14909 3.44063 9.21921C3.39433 9.28903 3.18572 9.60622 3.22261 9.65287C3.26652 9.7079 3.44731 9.36958 3.50238 9.30648C3.55802 9.24238 3.53521 9.17793 3.53521 9.17793C3.53521 9.17793 3.53456 9.16349 3.52479 9.16283Z" fill="#94A3B8"/>
<path d="M8.06922 14.8817C8.04642 14.9871 8.07324 15.2026 8.10951 15.2448C8.19803 15.3516 8.1437 15.0777 8.15643 14.9817C8.16716 14.8924 8.17789 14.8615 8.22219 14.7662C8.30133 14.5944 8.11557 14.6575 8.06922 14.8817Z" fill="#94A3B8"/>
<path d="M7.30771 5.71609C7.30771 5.71609 7.23898 5.7181 7.18531 5.74764C7.13098 5.77718 7.11755 5.81916 7.11755 5.81916C7.11755 5.81916 7.10647 5.84935 7.11388 5.86581C7.12962 5.90172 7.2041 5.84735 7.25608 5.86511C7.29798 5.88021 7.31813 5.89264 7.35031 5.93122C7.37848 5.96482 7.42779 6.01312 7.45866 5.98559C7.4905 5.95875 7.47881 5.88994 7.47881 5.88994C7.47881 5.88994 7.44223 5.77783 7.3943 5.74629C7.34595 5.71408 7.30771 5.71609 7.30771 5.71609Z" fill="#94A3B8"/>
<path d="M6.16542 6.50448C6.16542 6.50448 6.12683 6.5105 6.1359 6.55749C6.14497 6.60349 6.17013 6.59642 6.17013 6.59642C6.17013 6.59642 6.24997 6.56216 6.24526 6.51421C6.23955 6.46586 6.16542 6.50448 6.16542 6.50448Z" fill="#94A3B8"/>
<path d="M5.60761 6.25408C5.60761 6.25408 5.5657 6.25578 5.53618 6.30775C5.50736 6.35946 5.49022 6.41318 5.49022 6.41318C5.49022 6.41318 5.47649 6.48099 5.5006 6.50246C5.52511 6.52358 5.55192 6.45852 5.58711 6.43299C5.60822 6.41789 5.62134 6.41117 5.64314 6.39572C5.67301 6.37521 5.72163 6.4014 5.71828 6.341C5.71396 6.28022 5.64956 6.25137 5.60761 6.25408Z" fill="#94A3B8"/>
<path d="M7.40993 5.6047C7.40993 5.6047 7.31504 5.59096 7.31871 5.62753C7.32206 5.66174 7.37007 5.64127 7.4009 5.65506C7.43108 5.66881 7.45122 5.67417 7.47534 5.69634C7.49313 5.71209 7.49108 5.74299 7.51292 5.74364C7.5431 5.74434 7.53708 5.7319 7.53708 5.7319C7.53708 5.7319 7.50956 5.65 7.47372 5.62687C7.43814 5.60335 7.40993 5.6047 7.40993 5.6047Z" fill="#94A3B8"/>
<path d="M8.46885 5.98764C8.45542 6.03935 8.44735 6.05711 8.44735 6.05711C8.44735 6.05711 8.42058 6.16218 8.52654 6.12357C8.63254 6.0846 8.57751 6.10105 8.65395 6.06383C8.72913 6.02691 8.72777 6.04738 8.7828 6.05008C8.80155 6.05074 8.81363 6.05139 8.84184 6.04607C8.86596 6.04066 8.85588 6.01247 8.80225 5.99802C8.74461 5.98293 8.67414 5.98629 8.59234 5.98559C8.54402 5.98498 8.48293 5.93597 8.46885 5.98764Z" fill="#94A3B8"/>
<path d="M8.51602 5.59926C8.51602 5.59926 8.4677 5.58818 8.43417 5.60899C8.40129 5.62946 8.41137 5.64591 8.41137 5.64591C8.41137 5.64591 8.46169 5.68588 8.49858 5.69125C8.53481 5.69762 8.6126 5.73117 8.60994 5.70434C8.60589 5.67816 8.56298 5.6295 8.54754 5.61641C8.53215 5.60328 8.51602 5.59926 8.51602 5.59926Z" fill="#94A3B8"/>
<path d="M8.70253 6.32867C8.70253 6.32867 8.65082 6.31824 8.61528 6.33805C8.58039 6.35751 8.58977 6.37331 8.58977 6.37331C8.58977 6.37331 8.6448 6.41027 8.68369 6.41594C8.72263 6.42131 8.80579 6.45286 8.80243 6.42768C8.79911 6.40285 8.75211 6.35686 8.73667 6.34447C8.72124 6.33199 8.70253 6.32867 8.70253 6.32867Z" fill="#94A3B8"/>
<path d="M8.71857 6.59308C8.71857 6.59308 8.6635 6.58069 8.62596 6.60351C8.58841 6.62598 8.59975 6.64414 8.59975 6.64414C8.59975 6.64414 8.65683 6.68742 8.69843 6.69349C8.73933 6.69986 8.82789 6.73612 8.82384 6.70723C8.82052 6.67839 8.77086 6.62603 8.75341 6.61193C8.73732 6.59709 8.71857 6.59308 8.71857 6.59308Z" fill="#94A3B8"/>
<path d="M8.74331 6.85087C8.74331 6.85087 8.68362 6.83712 8.64332 6.86261C8.60242 6.88809 8.61516 6.9086 8.61516 6.9086C8.61516 6.9086 8.67686 6.95691 8.72116 6.96432C8.76612 6.97139 8.862 7.01263 8.85803 6.98008C8.85398 6.94787 8.8003 6.88809 8.78155 6.87234C8.76411 6.85554 8.74331 6.85087 8.74331 6.85087Z" fill="#94A3B8"/>
<path d="M8.73786 7.16973C8.73786 7.16973 8.67817 7.15699 8.63788 7.18216C8.59698 7.20699 8.6084 7.22746 8.6084 7.22746C8.6084 7.22746 8.67141 7.27576 8.71571 7.28318C8.76001 7.29025 8.8559 7.33153 8.85189 7.29928C8.84722 7.26673 8.7942 7.20699 8.77611 7.1912C8.75731 7.17479 8.73786 7.16973 8.73786 7.16973Z" fill="#94A3B8"/>
<path d="M8.69423 7.79144C8.69423 7.79144 8.63384 7.77835 8.59359 7.80388C8.55334 7.82906 8.56542 7.84922 8.56542 7.84922C8.56542 7.84922 8.62712 7.89787 8.67142 7.90494C8.71638 7.91166 8.81231 7.95359 8.8083 7.92069C8.80424 7.88849 8.75065 7.82906 8.73182 7.81261C8.71368 7.79615 8.69423 7.79144 8.69423 7.79144Z" fill="#94A3B8"/>
<path d="M8.73472 7.48064C8.73472 7.48064 8.66626 7.46489 8.61795 7.49439C8.57164 7.52323 8.58577 7.54675 8.58577 7.54675C8.58577 7.54675 8.65754 7.60313 8.70917 7.6112C8.76019 7.61958 8.87155 7.66693 8.8675 7.63001C8.86214 7.59209 8.80039 7.52327 8.77898 7.50482C8.75748 7.48601 8.73472 7.48064 8.73472 7.48064Z" fill="#94A3B8"/>
<path d="M8.66473 8.07273C8.66473 8.07273 8.61507 8.06095 8.58158 8.08211C8.548 8.10292 8.55877 8.11938 8.55877 8.11938C8.55877 8.11938 8.60975 8.16 8.64598 8.16537C8.68287 8.17143 8.76136 8.2053 8.75866 8.17846C8.75465 8.15158 8.71104 8.10292 8.69565 8.08983C8.68087 8.07609 8.66473 8.07273 8.66473 8.07273Z" fill="#94A3B8"/>
<path d="M8.61786 8.34182C8.61786 8.34182 8.57762 8.33309 8.54945 8.35024C8.52267 8.36735 8.53065 8.38109 8.53065 8.38109C8.53065 8.38109 8.57291 8.41399 8.60313 8.41901C8.63326 8.42373 8.69971 8.45261 8.69701 8.42979C8.6943 8.40797 8.65676 8.36735 8.64468 8.35626C8.63195 8.34518 8.61786 8.34182 8.61786 8.34182Z" fill="#94A3B8"/>
<path d="M8.56027 8.58755C8.56027 8.58755 8.52403 8.57917 8.49852 8.59493C8.47437 8.61003 8.48108 8.62312 8.48108 8.62312C8.48108 8.62312 8.51932 8.65266 8.54684 8.65672C8.57435 8.66173 8.63335 8.68691 8.63073 8.6671C8.62868 8.64729 8.59581 8.61003 8.58438 8.6003C8.57296 8.59026 8.56027 8.58755 8.56027 8.58755Z" fill="#94A3B8"/>
<path d="M8.50243 8.78896C8.50243 8.78896 8.46488 8.78054 8.44077 8.79564C8.41522 8.81144 8.42263 8.82383 8.42263 8.82383C8.42263 8.82383 8.46087 8.85402 8.48839 8.85808C8.5159 8.86245 8.5749 8.88828 8.57224 8.86786C8.57023 8.84805 8.53735 8.81148 8.52528 8.80171C8.51451 8.79167 8.50243 8.78896 8.50243 8.78896Z" fill="#94A3B8"/>
<path d="M8.43201 9.02251C8.43201 9.02251 8.40249 9.01544 8.38169 9.02788C8.36155 9.04097 8.36826 9.0507 8.36826 9.0507C8.36826 9.0507 8.39909 9.07492 8.42124 9.07893C8.44339 9.08225 8.49166 9.1031 8.48905 9.08626C8.487 9.07051 8.46018 9.04097 8.45146 9.03259C8.44204 9.02452 8.43201 9.02251 8.43201 9.02251Z" fill="#94A3B8"/>
<path d="M8.34825 9.24109C8.34825 9.24109 8.32274 9.23502 8.3053 9.24576C8.2879 9.25684 8.29326 9.26587 8.29326 9.26587C8.29326 9.26587 8.32008 9.28634 8.33887 9.28904C8.35766 9.29275 8.39922 9.31056 8.39721 9.29611C8.39591 9.28237 8.3724 9.25684 8.36503 9.25012C8.35623 9.24309 8.34825 9.24109 8.34825 9.24109Z" fill="#94A3B8"/>
<path d="M8.26174 9.44886C8.26174 9.44886 8.23553 9.44315 8.21813 9.45423C8.2013 9.46461 8.20736 9.47334 8.20736 9.47334C8.20736 9.47334 8.23287 9.49416 8.25232 9.49752C8.27177 9.50022 8.31267 9.51798 8.31066 9.50458C8.30935 9.48979 8.28585 9.46461 8.27848 9.45759C8.27046 9.45082 8.26174 9.44886 8.26174 9.44886Z" fill="#94A3B8"/>
<path d="M2.64643 10.5058C2.64643 10.5058 2.60317 10.5897 2.62462 10.6357C2.64577 10.6821 2.70411 10.5622 2.70411 10.5622C2.70411 10.5622 2.76446 10.4427 2.74 10.4209C2.71519 10.3987 2.7008 10.4605 2.64643 10.5058Z" fill="#94A3B8"/>
<path d="M8.75209 21.2824V21.1193C8.75209 20.7487 8.93929 20.6762 9.486 20.6736C9.98911 20.6762 10.1668 20.7393 10.1668 21.0589V22.2921H10.3526V22.57H9.12374C8.86481 22.57 8.6958 22.3921 8.6958 22.1732V21.9235C8.6958 21.708 8.80577 21.52 9.19084 21.518H9.67115V21.1427C9.67115 20.9467 9.65772 20.9232 9.46124 20.9232H9.45919C9.22377 20.9232 9.20833 20.9541 9.20833 21.1427V21.2824H8.75209V21.2824ZM9.32236 21.7248C9.22577 21.7248 9.16874 21.8027 9.16874 21.8993V22.1376C9.16874 22.2337 9.20968 22.3102 9.32236 22.3115H9.49542C9.5907 22.3115 9.66853 22.282 9.66853 22.1376L9.66984 21.7248H9.50615C9.50214 21.7248 9.32236 21.7248 9.32236 21.7248Z" fill="#94A3B8"/>
<path d="M7.58326 21.138V20.7071H6.89771V20.9635H7.0805V22.2913H6.89771V22.5699H7.75637V22.2913H7.58326V21.5798C7.58326 21.5134 7.98743 21.0025 7.98743 21.0615V21.7684H8.46241V20.9729C8.46241 20.791 8.34364 20.6736 8.12696 20.6736C7.86935 20.6735 7.69528 20.9978 7.58326 21.138Z" fill="#94A3B8"/>
<path d="M13.0478 22.2901V20.7072H12.3481V20.9636H12.5441V22.2901H12.3481V22.57H13.2316V22.2901H13.0478Z" fill="#94A3B8"/>
<path d="M5.81934 21.138V20.7071H5.13379V20.9635H5.31658V22.2913H5.13379V22.5699H5.99175V22.2913H5.81934V21.5798C5.81934 21.5134 6.22316 21.0025 6.22316 21.0615V21.7684H6.69776V20.9729C6.69776 20.791 6.57968 20.6736 6.3627 20.6736C6.10574 20.6735 5.93136 20.9978 5.81934 21.138Z" fill="#94A3B8"/>
<path fill-rule="evenodd" clip-rule="evenodd" d="M4.8713 21.9598H4.39034V22.0994C4.39034 22.2888 4.35882 22.2968 4.12435 22.2994H4.121C3.85231 22.3008 3.86744 22.274 3.87044 22.0994V21.7684H4.87126V21.0495C4.87126 20.789 4.67473 20.6796 4.15619 20.6776H4.08175C3.52196 20.6803 3.37305 20.8078 3.37305 21.1301V22.1826C3.37305 22.537 3.58231 22.5968 4.09213 22.6109H4.14777C4.70425 22.5981 4.87126 22.5599 4.87126 22.2289V21.9598H4.8713ZM3.87585 21.0763C3.87585 20.9784 3.90537 20.93 4.01739 20.9286H4.22835C4.31556 20.9286 4.36418 20.9676 4.36418 21.0373V21.5764H3.87581V21.0763H3.87585Z" fill="#94A3B8"/>
<path d="M12.7944 20.3246V19.9875" stroke="#94A3B8" stroke-width="0.537986" stroke-miterlimit="10"/>
<path d="M11.2246 21.138V20.7071H10.5383V20.9635H10.7208V22.2913H10.5383V22.5699H11.3969V22.2913H11.2246V21.5798C11.2246 21.5134 11.6277 21.0025 11.6277 21.0615V21.7684H12.1033V20.9729C12.1033 20.791 11.9839 20.6736 11.7665 20.6736C11.5103 20.6735 11.3359 20.9978 11.2246 21.138Z" fill="#94A3B8"/>
<path d="M2.77348 21.6645V21.4161H2.50618V22.2921H2.96935V22.57H1.61133V22.2921H1.97255V20.3246H1.68881V19.9862H12.2664V20.3246H2.50618V21.1146H2.77348V20.8811H3.08107V21.6645H2.77348Z" fill="#94A3B8"/>
<path d="M13.041 19.9741H12.5366V20.3071H13.041V19.9741Z" fill="#94A3B8"/>
</g>
<defs>
<clipPath id="clip0_1775_1379">
<rect width="15" height="24" fill="white"/>
</clipPath>
</defs>
</svg>
