<svg width="16" height="16" viewBox="0 0 16 16" fill="none" xmlns="http://www.w3.org/2000/svg">
<path d="M6.88682 11.0619H2.68634" stroke="#64748B" stroke-width="1.5" stroke-linecap="round" stroke-linejoin="round"/>
<path d="M8.76031 4.60028H12.9608" stroke="#64748B" stroke-width="1.5" stroke-linecap="round" stroke-linejoin="round"/>
<path fill-rule="evenodd" clip-rule="evenodd" d="M5.81755 4.56417C5.81755 3.7004 5.11211 3 4.24212 3C3.37213 3 2.66669 3.7004 2.66669 4.56417C2.66669 5.42794 3.37213 6.12834 4.24212 6.12834C5.11211 6.12834 5.81755 5.42794 5.81755 4.56417Z" stroke="#64748B" stroke-width="1.5" stroke-linecap="round" stroke-linejoin="round"/>
<path fill-rule="evenodd" clip-rule="evenodd" d="M13.3334 11.0358C13.3334 10.1721 12.6285 9.47168 11.7585 9.47168C10.8879 9.47168 10.1825 10.1721 10.1825 11.0358C10.1825 11.8996 10.8879 12.6 11.7585 12.6C12.6285 12.6 13.3334 11.8996 13.3334 11.0358Z" stroke="#64748B" stroke-width="1.5" stroke-linecap="round" stroke-linejoin="round"/>
</svg>
